<?xml version="1.0" encoding="UTF-8"?>
<svg id="Layer_1" data-name="Layer 1" xmlns="http://www.w3.org/2000/svg" viewBox="0 0 512 512">
  <defs>
    <style>
      .cls-1 {
        fill: #defff2;
      }

      .cls-1, .cls-2 {
        stroke-width: 0px;
      }

      .cls-2 {
        fill: #ed2024;
      }
    </style>
  </defs>
  <circle class="cls-1" cx="256" cy="256" r="255"/>
  <g>
    <path class="cls-2" d="M40.64,415.4l9-57.5c16,2.34,30,3.5,42,3.5,10.66,0,18.16-2,22.5-6,4.33-4,6.5-10.66,6.5-20V107.4l32,31.5H55.64v-62h137v257c0,30.34-7.17,52.59-21.5,66.75-14.34,14.17-36.5,21.25-66.5,21.25-19,0-40.34-2.17-64-6.5Z"/>
    <path class="cls-2" d="M244.14,396.4l20-54.5c34.33,15.34,65.33,23,93,23,18,0,31.75-3.41,41.25-10.25,9.5-6.83,14.25-16.91,14.25-30.25,0-9.33-2.67-17.08-8-23.25-5.34-6.16-12.09-11-20.25-14.5-8.17-3.5-19.25-7.41-33.25-11.75-20.67-6-37.59-12.25-50.75-18.75-13.17-6.5-24.5-16.5-34-30s-14.25-31.41-14.25-53.75c0-31.66,10.75-56.58,32.25-74.75,21.5-18.16,50.91-27.25,88.25-27.25s71.66,7,104,21l-20,52c-13.34-5.33-27.17-9.5-41.5-12.5-14.34-3-27.5-4.5-39.5-4.5-16.34,0-28.75,3.17-37.25,9.5-8.5,6.34-12.75,15.67-12.75,28,0,9.67,2.66,17.59,8,23.75,5.33,6.17,12.08,10.92,20.25,14.25,8.16,3.34,19.41,7.17,33.75,11.5,20.66,6.34,37.58,12.75,50.75,19.25,13.16,6.5,24.41,16.5,33.75,30,9.33,13.5,14,31.75,14,54.75,0,32.67-10.92,58.25-32.75,76.75-21.84,18.5-52.25,27.75-91.25,27.75s-78-8.5-118-25.5Z"/>
  </g>
</svg>