<?xml version="1.0" standalone="no"?>
<!DOCTYPE svg PUBLIC "-//W3C//DTD SVG 20010904//EN"
 "http://www.w3.org/TR/2001/REC-SVG-20010904/DTD/svg10.dtd">
<svg version="1.0" xmlns="http://www.w3.org/2000/svg"
 width="700.000000pt" height="700.000000pt" viewBox="0 0 700.000000 700.000000"
 preserveAspectRatio="xMidYMid meet">
<metadata>
Created by potrace 1.14, written by Peter Selinger 2001-2017
</metadata>
<g transform="translate(0.000000,700.000000) scale(0.100000,-0.100000)"
fill="#000000" stroke="none">
<path d="M4940 6033 c-580 -33 -1030 -252 -1278 -622 -135 -202 -199 -414
-209 -701 -12 -332 47 -586 182 -791 61 -90 248 -281 332 -337 161 -109 382
-199 798 -328 431 -134 592 -206 708 -314 123 -115 167 -216 167 -380 0 -215
-95 -369 -280 -458 -346 -165 -930 -108 -1584 154 -88 35 -162 62 -165 59 -13
-13 -270 -730 -263 -736 13 -12 294 -116 426 -158 651 -207 1347 -245 1858
-101 385 108 698 346 860 656 44 84 100 247 122 356 36 174 38 471 6 650 -16
85 -54 212 -85 283 -70 158 -252 369 -409 475 -159 106 -424 215 -876 358
-438 139 -553 193 -668 315 -103 110 -148 266 -124 429 30 208 157 337 389
399 101 27 344 36 509 19 244 -24 550 -95 780 -179 l106 -39 13 31 c7 18 68
176 136 351 113 296 121 320 104 332 -27 20 -257 102 -405 145 -359 102 -795
152 -1150 132z"/>
<path d="M760 5525 l0 -425 445 0 445 0 -2 -1402 c-3 -1274 -5 -1407 -19
-1446 -39 -101 -98 -151 -210 -176 -110 -26 -380 -18 -646 18 l-92 12 -5 -25
c-8 -41 -116 -737 -116 -749 0 -12 122 -35 331 -62 1109 -141 1623 124 1724
888 13 97 15 378 15 1953 l0 1839 -935 0 -935 0 0 -425z"/>
</g>
</svg>
